<?xml version="1.0" encoding="utf-8"?>
<!-- Generator: Adobe Illustrator 24.1.3, SVG Export Plug-In . SVG Version: 6.00 Build 0)  -->
<svg version="1.1" id="图层_1" xmlns="http://www.w3.org/2000/svg" xmlns:xlink="http://www.w3.org/1999/xlink" x="0px" y="0px"
	 viewBox="0 0 237.12 281.52" style="enable-background:new 0 0 237.12 281.52;" xml:space="preserve">
<g>
	<path d="M19.03,281.52c0.14-0.64,0.15-1.35,0.43-1.93c8.13-16.61,9.92-35.1,15.61-52.43c0.15-0.45,0.06-0.97,0.11-1.98
		c-4.47-0.93-8.95-1.87-13.43-2.78c-9.81-1.97-16.17-8.6-18.93-17.35c-2.09-6.66-4.28-13.77-1.54-21.57
		c1.98-5.63,4.91-8.75,10.12-10.37c4.27-1.33,9.11-2,7.2-8.54c-0.1-0.36,0.66-0.96,1.47-2.06c0.58,2.68,1,4.67,1.48,6.89
		c3.1-0.47,6.18-1.01,9.28-1.4c6.61-0.83,11.67,1.76,13.77,8.11c1.54,4.64,1.72,9.72,2.68,14.56c0.43,2.18,1.02,4.42,2.03,6.38
		c1.27,2.47,3.36,3.35,6.36,4.19c12.8,3.58,25.38,7.94,37.93,12.35c2.77,0.97,4.56,1.23,6.39-1.3c1.16-1.6,2.55-3.18,4.16-4.28
		c5.43-3.71,6.25-8.98,5.72-14.94c-0.52-5.87,3.02-8.88,8.82-7.55c1.92,0.44,3.73,1.36,5.59,2.05c6.13-8.45,7.35-25.9,1.86-28.81
		c0-6.17,0.77-12.57-0.31-18.65c-0.57-3.22-4.19-6.01-6.71-8.74c-3.01-3.24-4.3-8.21-9.34-9.57c-0.18-0.05,0.03-2.51,0.48-3.69
		c1.21-3.24,2.65-6.39,3.59-8.62c-3.36-1.4-5.41-2.16-7.38-3.11c-1.85-0.89-3.5-2.26-5.41-2.93c-3.51-1.23-7.65-6.45-8.07-10.17
		c-0.23-2.01-0.93-4.03-1.79-5.87c-0.3-0.65-1.7-0.78-2.14-0.96c1.01-5.26,2.09-11.02,3.22-16.77
		c3.08-15.72,13.31-26.01,26.17-34.26c2.75-1.76,5.72-3.19,8.78-4.89c-3.19-7.02-5.53-13.81-3.18-21.35
		c1.29-4.14,3.94-6.38,7.96-7.36c2.42-0.59,4.81-1.31,7.26-1.74c1.01-0.18,2.38-0.1,3.16,0.46c5.91,4.26,11.67,8.75,17.58,13.01
		c4.68,3.37,9.23,5.93,15.76,3.84c10.09-3.22,18.13,1.46,24.69,8.93c5.8,6.61,9.73,13.92,10.87,23.04
		c0.68,5.4,4.42,10.34,6.23,15.68c6.58,19.41,9.48,39.47,9.71,59.9c0.2,17.48,0.12,34.96,0.15,52.45c0,0.62-0.14,1.24-0.34,2.97
		c-2.44-3.65-4.31-6.44-6.17-9.22c-0.25,0.13-0.5,0.25-0.75,0.38c0.38,3.03,0.77,6.07,1.15,9.1c-0.41,0.12-0.82,0.24-1.24,0.35
		c-2.13-5.29-4.26-10.58-6.64-16.5c-0.61,3.64-1.12,6.71-1.78,10.67c-1.2-3.23-2.18-5.85-3.62-9.72
		c-2.82,6.31-3.17,12.01-2.27,17.27c0.89,5.17,3.7,10.01,5.78,15.31c-1.02,0.47-2.27,1.05-3.53,1.63
		c2.82,13.33,5.6,26.53,8.41,39.83c7.23-1.09,13.15-7.69,20.68-3.96c-3,7.26-8.76,10.21-16.18,10.86c-0.99,0.09-2.7,1.88-2.61,2.72
		c0.57,5.35,0.84,10.91,2.58,15.92c2,5.76,5.42,11.02,8.22,16.5c-36.69,0-73.37,0-110.06,0c0.5-7.83,1.01-15.65,1.51-23.48
		c-0.39-0.04-0.79-0.07-1.18-0.11c-1.78,7.86-3.56,15.73-5.33,23.59C82.4,281.52,50.71,281.52,19.03,281.52z M146.09,139.82
		c-0.49-0.02-0.99-0.03-1.48-0.05c-0.52,4.4-1.04,8.81-1.67,14.14c3.01-2.37,5.16-4.06,7.38-5.82
		C148.77,145.07,147.43,142.45,146.09,139.82z"/>
</g>
</svg>
